<?xml version="1.0" encoding="UTF-8"?>
<svg xmlns="http://www.w3.org/2000/svg" width="1000" height="1000" viewBox="0 0 1000 1000" version="1.1">
  <path d="M 484.684 157.449 C 476.017 160.540, 474.443 165.252, 474.645 187.500 C 474.804 204.910, 475.421 207.781, 480.878 216.500 C 486.021 224.717, 488.395 230.294, 488.327 234 C 488.292 235.925, 487.327 243.575, 486.182 251 C 482.579 274.383, 476.517 314.442, 473.018 338 C 472.487 341.575, 471.355 349, 470.504 354.500 C 469.652 360, 468.538 367.650, 468.027 371.500 C 467.517 375.350, 466.671 380.750, 466.147 383.500 C 465.623 386.250, 464.661 392.325, 464.011 397 C 463.360 401.675, 462.236 409.325, 461.512 414 C 460.789 418.675, 459.674 426.100, 459.035 430.500 C 458.396 434.900, 457.267 442.325, 456.527 447 C 455.786 451.675, 454.659 459.100, 454.022 463.500 C 453.384 467.900, 452.197 475.775, 451.383 481 C 450.569 486.225, 449.501 493.200, 449.009 496.500 C 446.140 515.768, 444.720 524.950, 444.062 528.500 C 443.335 532.419, 443.298 532.450, 442.197 530 C 438.141 520.969, 414.161 451.286, 404 419 C 401.143 409.925, 398.427 401.375, 397.964 400 C 393.672 387.263, 379.366 338.299, 369.622 303 C 368.180 297.775, 365.343 287.650, 363.317 280.500 C 360.012 268.834, 359.639 266.320, 359.685 256 C 359.720 248.231, 360.590 239.656, 362.368 229.572 C 366.359 206.934, 365.642 185.195, 360.550 174.465 C 357.372 167.767, 351.888 165.508, 339 165.589 C 324.855 165.677, 316.447 169.293, 313.394 176.600 C 311.536 181.046, 311.577 197.859, 313.468 206.847 C 315.106 214.636, 316.709 217.862, 323.832 227.714 C 326.531 231.446, 329.414 235.850, 330.241 237.500 C 331.547 240.108, 331.837 259.790, 332.462 388.132 L 333.181 535.763 326.841 536.888 C 323.353 537.507, 319.582 538.263, 318.460 538.568 C 316.737 539.037, 316.049 538.217, 314.046 533.312 C 312.741 530.115, 310.456 524.800, 308.967 521.500 C 307.478 518.200, 301.871 504.925, 296.507 492 C 286.311 467.434, 283.388 460.560, 282.010 457.911 C 281.556 457.037, 279.272 451.637, 276.935 445.911 C 274.598 440.185, 272.194 435.169, 271.593 434.765 C 270.992 434.361, 270.889 434.024, 271.365 434.015 C 271.841 434.007, 271.493 432.875, 270.592 431.500 C 269.691 430.125, 269.241 429, 269.592 429 C 269.943 429, 269.493 427.875, 268.592 426.500 C 267.691 425.125, 267.205 424, 267.512 424 C 267.819 424, 267.514 422.988, 266.833 421.750 C 266.153 420.512, 265.507 419.050, 265.398 418.500 C 265.290 417.950, 264.269 415.357, 263.130 412.737 C 261.992 410.118, 261.138 407.868, 261.234 407.737 C 261.330 407.607, 260.696 406.150, 259.826 404.500 C 258.956 402.850, 257.676 400.150, 256.982 398.500 C 254.831 393.387, 252.523 388.523, 252 388 C 251.725 387.725, 251.343 386.600, 251.150 385.500 C 250.958 384.400, 250.283 383.169, 249.650 382.765 C 249.018 382.361, 248.889 382.024, 249.365 382.015 C 249.841 382.007, 249.493 380.875, 248.592 379.500 C 247.691 378.125, 247.167 377, 247.429 377 C 248.067 377, 240.079 357.834, 238.780 356.250 C 238.216 355.563, 238.010 355, 238.323 355 C 238.635 355, 237.751 352.413, 236.360 349.250 C 232.669 340.862, 230.899 336.758, 229.998 334.500 C 229.559 333.400, 228.274 330.408, 227.142 327.851 C 217.966 307.115, 202 267.268, 202 265.103 C 202 263.627, 203.394 258.162, 205.097 252.959 C 207.780 244.766, 208.118 242.563, 207.623 236.500 C 206.496 222.707, 201.513 207.924, 195.022 199.114 L 191.791 194.729 184.123 195.254 C 174.680 195.901, 162.936 199.291, 159.299 202.419 C 156.914 204.471, 156.530 205.629, 156.179 211.835 C 155.737 219.661, 157.619 229.962, 161.689 242 C 164.863 251.387, 167.597 256.799, 175.625 269.588 C 179.123 275.160, 182.725 281.469, 183.630 283.609 C 185.525 288.087, 188.301 303.776, 189.893 319 C 193.381 352.363, 193.894 358.092, 197.001 398.500 C 197.593 406.200, 198.721 419.475, 199.507 428 C 200.293 436.525, 201.422 449.350, 202.016 456.500 C 202.611 463.650, 203.723 476.025, 204.487 484 C 205.252 491.975, 206.382 504.575, 207 512 C 207.617 519.425, 208.750 531.800, 209.519 539.500 C 210.287 547.200, 211.148 556.602, 211.433 560.393 L 211.951 567.286 207.049 560.169 C 201.776 552.516, 176.737 514.726, 171.487 506.500 C 168.183 501.322, 161.357 490.490, 154.609 479.714 C 152.468 476.296, 149.713 471.925, 148.485 470 C 141.367 458.843, 101.290 391.392, 93.821 378 C 92.440 375.525, 85.920 364.050, 79.330 352.500 C 66.992 330.874, 60.766 319.718, 58.130 314.513 C 56.973 312.230, 56.588 307.520, 56.491 294.513 C 56.362 277.057, 55.653 272.695, 50.475 257.500 C 46.854 246.875, 41.048 239.465, 35.556 238.457 C 27.679 237.012, 7.646 244.067, 2.602 250.062 C -0.116 253.291, -0.226 253.800, 0.342 260.515 C 1.019 268.526, 2.301 272.613, 7.614 283.697 C 12.963 294.856, 16.272 300.044, 26.092 312.670 C 30.870 318.813, 35.884 326.238, 37.235 329.170 C 38.833 332.636, 50.598 382.752, 70.882 472.500 C 88.037 548.400, 103.243 615, 104.674 620.500 C 110.767 643.914, 122.310 656.588, 143.813 663.473 C 150.801 665.710, 178.586 673.072, 193.500 676.639 C 202.991 678.908, 212.159 681.044, 216.500 681.998 C 218.700 682.481, 222.525 683.329, 225 683.882 C 252.672 690.067, 302.171 698.692, 329 702.006 C 333.675 702.583, 340.650 703.486, 344.500 704.012 C 359.602 706.076, 383.502 708.230, 418.500 710.680 C 449.554 712.854, 533.072 713.182, 560 711.235 C 600.558 708.303, 614.641 707.027, 634.500 704.482 C 656.013 701.725, 669.576 699.880, 675 698.972 C 685.582 697.201, 705.539 693.753, 710 692.924 C 712.475 692.464, 716.975 691.634, 720 691.080 C 738.783 687.637, 777.176 678.934, 801 672.717 C 812.862 669.622, 840.354 661.699, 849 658.884 C 858.861 655.673, 863.649 652.466, 873.606 642.402 C 887.562 628.298, 889.752 623.175, 900.497 579.500 C 908.284 547.848, 911.275 535.418, 913.975 523.500 C 914.473 521.300, 915.618 516.350, 916.519 512.500 C 917.420 508.650, 918.545 503.700, 919.019 501.500 C 919.493 499.300, 920.618 494.350, 921.519 490.500 C 923.300 482.886, 923.641 481.348, 927.489 463.500 C 930.811 448.097, 931.519 444.895, 933.353 437 C 934.183 433.425, 936.071 425.100, 937.548 418.500 C 940.316 406.135, 944.335 388.540, 946 381.500 C 951.249 359.305, 952.313 354.142, 956.094 332.500 C 957.339 325.372, 961.457 313.906, 964.548 308.960 C 968.378 302.831, 977.331 295.502, 984.671 292.488 C 992.659 289.207, 995.457 286.359, 997.429 279.500 C 999.187 273.382, 1001.051 260.167, 1000.858 255.178 L 1000.716 251.500 1000 255.500 C 999.606 257.700, 999.220 258.572, 999.142 257.437 C 998.844 253.108, 989.121 246.322, 977.824 242.558 C 968.328 239.394, 959.885 239.163, 955.327 241.942 C 950.027 245.174, 942.341 256.837, 939.898 265.354 C 939.173 267.883, 939.596 269.870, 942.162 275.982 C 944.469 281.480, 945.443 285.583, 945.787 291.254 C 946.516 303.263, 944.246 310.493, 934.669 326.670 C 931.143 332.626, 921.142 349.875, 912.444 365 C 903.747 380.125, 892.889 398.988, 888.316 406.918 C 883.742 414.848, 880 421.444, 880 421.576 C 880 421.709, 875.050 430.224, 869 440.500 C 862.950 450.776, 858 459.310, 858 459.465 C 858 459.619, 854.128 466.441, 849.395 474.623 C 825.795 515.424, 818.055 528.841, 816.009 532.500 C 807.084 548.461, 798.547 561.218, 788.702 573.305 L 784 579.078 784 574.901 C 784 572.604, 784.654 565.049, 785.453 558.112 C 786.253 551.176, 787.402 540.100, 788.006 533.500 C 788.611 526.900, 789.743 515.425, 790.522 508 C 791.301 500.575, 792.426 489.100, 793.021 482.500 C 793.617 475.900, 794.739 464.425, 795.514 457 C 796.289 449.575, 797.412 438.325, 798.010 432 C 798.607 425.675, 799.731 414.200, 800.508 406.500 C 801.286 398.800, 802.406 387.325, 802.999 381 C 803.591 374.675, 804.710 363.425, 805.486 356 C 807.928 332.607, 808.958 320.054, 810.003 300.967 C 811.103 280.872, 812.741 272.939, 817.670 263.840 C 821.217 257.293, 828.306 250.125, 835.475 245.838 C 838.869 243.807, 841.570 241.318, 842.496 239.368 C 844.787 234.539, 844.507 218.851, 841.983 210.680 C 839.586 202.920, 836.460 199.857, 828.608 197.574 C 821.951 195.639, 808.096 195.515, 803.702 197.351 C 796.904 200.191, 788.155 214.296, 787.239 223.891 C 786.857 227.893, 787.438 229.749, 791.650 237.983 L 796.500 247.467 796.400 258.483 C 796.290 270.744, 794.929 275.522, 786.284 294 C 783.840 299.225, 779.799 308.450, 777.304 314.500 C 774.809 320.550, 771.868 327.525, 770.767 330 C 769.667 332.475, 768.124 335.962, 767.338 337.748 C 766.552 339.534, 761.206 352.271, 755.459 366.052 C 749.711 379.833, 743.942 393.447, 742.638 396.305 C 741.333 399.162, 736.338 410.950, 731.537 422.500 C 726.737 434.050, 721.994 445.300, 720.998 447.500 C 720.002 449.700, 715.596 460.076, 711.206 470.558 C 706.817 481.040, 702.215 491.840, 700.980 494.558 C 697.332 502.589, 693.505 510.916, 689.058 520.500 C 686.761 525.450, 683.497 532.499, 681.804 536.165 L 678.726 542.830 675.113 542.252 C 673.126 541.935, 670.375 541.378, 669 541.016 L 666.500 540.356 666.191 404.928 C 665.968 307.158, 666.199 267.554, 667.020 262.500 C 668.020 256.349, 675.044 235.216, 676.992 232.500 C 678.092 230.966, 682.674 217.114, 683.938 211.500 C 686.944 198.144, 686.723 179.560, 683.499 174.638 C 679.863 169.090, 671.161 166.028, 659 166.017 C 648.800 166.009, 644.235 167.450, 639.827 172.072 C 634.737 177.408, 632.648 186.868, 633.156 202.280 L 633.525 213.500 639.263 225.264 C 645.982 239.041, 646.297 241.902, 642.461 254.296 C 641.064 258.808, 639.495 264.075, 638.973 266 C 638.451 267.925, 637.364 271.750, 636.556 274.500 C 635.164 279.236, 619.144 334.545, 617.004 342 C 610.710 363.932, 600.705 398.456, 599.617 402 C 598.856 404.475, 597.738 408.300, 597.132 410.500 C 596.525 412.700, 592.648 426.200, 588.515 440.500 C 584.382 454.800, 580.504 468.300, 579.897 470.500 C 579.290 472.700, 578.219 476.300, 577.517 478.500 C 576.815 480.700, 573.160 493.191, 569.395 506.257 C 564.492 523.270, 562.337 529.439, 561.800 527.988 C 561.388 526.873, 560.120 521.808, 558.983 516.731 C 557.846 511.654, 556.510 505.700, 556.013 503.500 C 555.517 501.300, 554.386 496.125, 553.500 492 C 552.614 487.875, 551.491 482.700, 551.004 480.500 C 547.410 464.265, 539.626 424.263, 536.020 403.500 C 530.975 374.452, 525.839 343.652, 523.971 331.232 C 522.834 323.679, 520.544 308.500, 518.880 297.500 C 517.217 286.500, 515.471 274.575, 515.001 271 C 512.609 252.800, 511.836 247.410, 510.959 242.781 C 508.894 231.896, 509.539 228.220, 515.010 219.680 C 523.412 206.568, 523.249 207.111, 523.162 192.568 C 523.055 174.564, 518.977 160.591, 512.915 157.456 C 509.212 155.541, 490.047 155.536, 484.684 157.449 M 0.300 258 C 0.300 261.025, 0.487 262.262, 0.716 260.750 C 0.945 259.238, 0.945 256.762, 0.716 255.250 C 0.487 253.738, 0.300 254.975, 0.300 258 M 852.500 670.718 C 804.059 685.195, 745.832 698.693, 700.500 705.955 C 697.200 706.484, 690.450 707.574, 685.500 708.379 C 680.550 709.184, 672.900 710.311, 668.500 710.884 C 664.100 711.457, 655.550 712.589, 649.500 713.399 C 631.707 715.783, 593.146 719.392, 566.500 721.167 C 541.762 722.815, 448.102 722.811, 422 721.160 C 392.468 719.293, 360.073 716.366, 336.500 713.434 C 310.023 710.141, 310.290 710.179, 283 705.878 C 277.125 704.953, 272.447 704.132, 255 700.969 C 218.711 694.391, 176.321 684.675, 135.709 673.628 L 126.917 671.237 121.009 676.233 L 115.102 681.229 125.678 692.864 C 143.425 712.388, 144.167 712.840, 169.500 719.543 C 175 720.998, 183.775 723.319, 189 724.701 C 194.225 726.083, 200.075 727.560, 202 727.984 C 203.925 728.408, 213.600 730.631, 223.500 732.924 C 242.177 737.250, 272.438 743.521, 282 745.046 C 285.025 745.529, 291.550 746.619, 296.500 747.469 C 359.233 758.238, 429.205 764.181, 493.500 764.202 C 545.673 764.219, 605.054 760.172, 651.500 753.434 C 680.701 749.198, 688.774 747.963, 694.500 746.857 C 697.250 746.325, 703.325 745.239, 708 744.443 C 712.675 743.648, 719.425 742.361, 723 741.585 C 726.575 740.809, 732.200 739.634, 735.500 738.975 C 738.800 738.315, 743.750 737.211, 746.500 736.521 C 749.250 735.831, 754.200 734.684, 757.500 733.972 C 784.375 728.174, 846.981 710.553, 851.707 707.457 C 856.822 704.105, 862.609 698.115, 871.993 686.459 L 881.687 674.417 877.185 670.459 C 874.709 668.281, 872.192 666.239, 871.591 665.920 C 870.991 665.600, 862.400 667.760, 852.500 670.718 M 849.936 749.398 C 849.242 750.091, 805.053 761.704, 794.500 763.966 C 792.300 764.438, 787.350 765.539, 783.500 766.413 C 761.505 771.409, 739.077 775.825, 712.500 780.393 C 695.069 783.388, 660.778 788.154, 644 789.912 C 638.225 790.517, 629.225 791.484, 624 792.060 C 561.224 798.978, 464.514 799.778, 387.500 794.015 C 368.803 792.616, 332.027 788.863, 318.719 786.995 C 314.748 786.438, 308.350 785.544, 304.500 785.008 C 300.650 784.472, 294.125 783.563, 290 782.988 C 279.923 781.583, 257.800 777.868, 245.500 775.516 C 241.650 774.780, 235.575 773.657, 232 773.021 C 228.425 772.384, 223.587 771.438, 221.248 770.917 C 218.910 770.396, 212.610 769.099, 207.248 768.033 C 199.299 766.454, 186.902 763.679, 169.500 759.583 C 168.400 759.324, 160.832 757.467, 152.683 755.456 C 144.534 753.446, 137.678 751.988, 137.449 752.218 C 136.772 752.895, 139.890 766.689, 141.940 772.085 C 146.881 785.087, 157.145 795.668, 171.330 802.384 C 180.010 806.493, 191.070 809.860, 208 813.547 C 235.874 819.617, 267.416 825.904, 280 827.898 C 329.653 835.766, 355.289 838.658, 407 842.224 C 431.705 843.928, 535.706 843.939, 562 842.240 C 624.470 838.205, 647.621 835.867, 688.500 829.466 C 694 828.605, 701.064 827.510, 704.199 827.033 C 707.333 826.557, 712.283 825.682, 715.199 825.091 C 718.114 824.499, 726.800 822.854, 734.500 821.434 C 750.481 818.488, 756.095 817.370, 782.500 811.872 C 792.950 809.696, 803.750 807.518, 806.500 807.031 C 811.198 806.200, 818.576 804.324, 825.558 802.186 C 844.464 796.397, 856.034 782.472, 855.981 765.572 C 855.948 755.267, 852.715 746.618, 849.936 749.398" stroke="none" fill="gold" fill-rule="evenodd"></path>
</svg>
